<?xml version="1.0" encoding="utf-8"?>
<!-- Generator: Adobe Illustrator 19.0.0, SVG Export Plug-In . SVG Version: 6.00 Build 0)  -->
<svg version="1.1" id="Layer_1" xmlns="http://www.w3.org/2000/svg" xmlns:xlink="http://www.w3.org/1999/xlink" x="0px" y="0px"
	 viewBox="0 0 350 350" style="enable-background:new 0 0 350 350;" xml:space="preserve">
<style type="text/css">
	.st0{fill:#666666;}
</style>
<g id="XMLID_26_">
	<path id="XMLID_35_" class="st0" d="M134.513,253.731c-8.285-2.69-13.677-11.154-19.421-18.718l-27.985,86.186l36.343-14.961
		l20.621,33.458l29.935-92.191C160.86,247.722,146.347,257.573,134.513,253.731z"/>
	<path id="XMLID_39_" class="st0" d="M214.381,253.731c-11.834,3.843-26.347-6.008-39.493-6.227l29.935,92.191l20.621-33.458
		l36.343,14.961l-27.986-86.186C228.058,242.576,222.666,251.041,214.381,253.731z"/>
	<path id="XMLID_66_" class="st0" d="M174.447,53.162c-42.823,0-77.663,34.839-77.663,77.663c0,42.823,34.839,77.663,77.663,77.663
		c42.824,0,77.663-34.839,77.663-77.663C252.11,88.001,217.271,53.162,174.447,53.162z M200.291,170.595l-25.844-13.587
		l-25.844,13.587l4.936-28.778l-20.908-20.38l28.894-4.199l12.922-26.183l12.922,26.183l28.894,4.199l-20.908,20.38L200.291,170.595
		z"/>
	<path id="XMLID_69_" class="st0" d="M280.566,96.343c-3.85-11.858,1.005-28.263-6.178-38.133
		c-7.255-9.969-24.406-10.386-34.375-17.641c-9.87-7.183-15.527-23.406-27.385-27.257c-11.441-3.715-25.502,5.963-38.182,5.963
		c-12.68,0-26.74-9.678-38.181-5.963c-11.858,3.85-17.515,20.073-27.385,27.256c-9.969,7.255-27.12,7.672-34.375,17.641
		c-7.183,9.87-2.328,26.275-6.179,38.133c-3.715,11.441-17.409,21.803-17.409,34.482c0,12.68,13.693,23.041,17.408,34.482
		c3.85,11.858-1.005,28.263,6.178,38.133c7.255,9.969,24.406,10.386,34.375,17.641c9.87,7.183,15.527,23.406,27.385,27.257
		c11.441,3.715,25.502-5.963,38.182-5.963c12.68,0,26.74,9.678,38.181,5.963c11.858-3.85,17.515-20.073,27.385-27.256
		c9.969-7.255,27.12-7.672,34.375-17.641c7.183-9.87,2.328-26.275,6.178-38.133c3.715-11.441,17.409-21.803,17.409-34.483
		C297.975,118.145,284.281,107.784,280.566,96.343z M174.447,213.621c-45.654,0-82.796-37.142-82.796-82.796
		c0-45.654,37.142-82.796,82.796-82.796c45.654,0,82.796,37.142,82.796,82.796C257.243,176.479,220.101,213.621,174.447,213.621z"/>
</g>
</svg>
