<?xml version="1.0" encoding="utf-8"?>
<!-- Generator: Adobe Illustrator 19.0.0, SVG Export Plug-In . SVG Version: 6.00 Build 0)  -->
<svg version="1.1" id="Layer_1" xmlns="http://www.w3.org/2000/svg" xmlns:xlink="http://www.w3.org/1999/xlink" x="0px" y="0px"
	 viewBox="0 0 350 350" style="enable-background:new 0 0 350 350;" xml:space="preserve">
<style type="text/css">
	.st0{fill:#666666;}
</style>
<g id="XMLID_10_">
	<path id="XMLID_13_" class="st0" d="M48.431,242.539c-12.134,0-22.005-9.872-22.005-22.006V72.121
		c0-12.134,9.871-22.005,22.005-22.005h209.67c12.134,0,22.006,9.871,22.006,22.005v128.831l15.529,19.681
		c0-0.034,0.003-0.067,0.003-0.1V72.121c0-20.697-16.839-37.536-37.538-37.536H48.431c-20.697,0-37.536,16.839-37.536,37.536
		v148.412c0,20.699,16.839,37.538,37.536,37.538h204.431l-12.255-15.531H48.431z"/>
	<path id="XMLID_45_" class="st0" d="M227.385,153.282c-1.168-1.48-2.755-2.573-4.555-3.135l-25.167-7.861l1.79,26.305
		c0.128,1.881,0.821,3.679,1.989,5.159l94.779,120.123l25.942-20.469L227.385,153.282z"/>
	<path id="XMLID_55_" class="st0" d="M338.852,294.555l-14.326-18.157l-25.942,20.469l14.326,18.157
		c0.494,0.626,1.402,0.733,2.028,0.239l23.676-18.681C339.239,296.089,339.346,295.181,338.852,294.555z"/>
	<path id="XMLID_64_" class="st0" d="M249.619,100.742c0-2.383-1.931-4.314-4.314-4.314H61.228c-2.383,0-4.314,1.931-4.314,4.314
		c0,2.383,1.931,4.314,4.314,4.314h184.077C247.688,105.056,249.619,103.125,249.619,100.742z"/>
	<path id="XMLID_70_" class="st0" d="M61.228,130.942c-2.383,0-4.314,1.931-4.314,4.314c0,2.383,1.931,4.314,4.314,4.314h128.28
		c2.383,0,4.314-1.931,4.314-4.314c0-2.383-1.931-4.314-4.314-4.314H61.228z"/>
</g>
</svg>
