<?xml version="1.0" encoding="utf-8"?>
<!-- Generator: Adobe Illustrator 19.0.0, SVG Export Plug-In . SVG Version: 6.00 Build 0)  -->
<svg version="1.1" id="Layer_1" xmlns="http://www.w3.org/2000/svg" xmlns:xlink="http://www.w3.org/1999/xlink" x="0px" y="0px"
	 viewBox="0 0 350 350" style="enable-background:new 0 0 350 350;" xml:space="preserve">
<style type="text/css">
	.st0{fill:#1D72E9;}
</style>
<g id="XMLID_2_">
	<g id="XMLID_1_">
		<path id="XMLID_4_" class="st0" d="M43.615,230.113h79.808c0.231,0,0.42-0.189,0.42-0.42v-60.486c0-0.231-0.189-0.42-0.42-0.42
			H43.615c-0.231,0-0.42,0.189-0.42,0.42v60.486C43.195,229.924,43.384,230.113,43.615,230.113z"/>
		<path id="XMLID_134_" class="st0" d="M298.959,280.262c-4.87-4.904-7.523-11.413-7.474-18.324V130.772
			c0-0.014,0.007-0.025,0.008-0.038V81.088c0-9.214-7.469-16.683-16.683-16.683H26.923c-9.214,0-16.683,7.469-16.683,16.683v188.417
			c0,9.214,7.469,16.683,16.683,16.683h281.194C304.72,284.904,301.597,282.919,298.959,280.262z M233.333,125.395
			c-0.484-0.553-1.278-1.003-2.386-1.349c-0.461-0.161-1.209-0.368-2.246-0.622c-1.037-0.254-2.386-0.576-4.045-0.968
			c-2.097-0.507-3.976-1.101-5.634-1.78c-1.661-0.679-2.927-1.388-3.803-2.127c-2.674-2.258-4.01-5.001-4.01-8.227
			c0-1.567,0.333-3.042,1.003-4.425c0.668-1.383,1.659-2.588,2.973-3.613c1.313-1.025,2.932-1.833,4.857-2.42
			c1.925-0.587,4.131-0.881,6.621-0.881c4.886,0,8.7,0.957,11.443,2.87c2.742,1.913,4.309,4.886,4.701,8.919l-9.991,0.413
			c-0.392-1.498-1.071-2.615-2.039-3.352c-0.968-0.738-2.363-1.108-4.182-1.108c-1.844,0-3.267,0.277-4.269,0.83
			c-1.003,0.553-1.505,1.314-1.505,2.282c0,0.438,0.121,0.824,0.363,1.157c0.243,0.335,0.663,0.651,1.262,0.952
			c0.599,0.3,1.401,0.594,2.404,0.881c1.003,0.289,2.264,0.605,3.785,0.952c1.982,0.461,3.71,0.927,5.185,1.4
			c1.475,0.473,2.697,0.95,3.665,1.434c1.98,1.014,3.565,2.397,4.753,4.15c1.186,1.751,1.78,3.884,1.78,6.394
			c0,1.131-0.179,2.243-0.537,3.337c-0.358,1.094-0.87,2.131-1.539,3.111c-0.668,0.979-1.491,1.861-2.471,2.645
			c-0.98,0.783-2.092,1.429-3.336,1.934c-2.42,0.968-5.416,1.452-8.988,1.452c-5.141,0-9.121-1.111-11.945-3.336
			c-2.822-2.223-4.614-5.618-5.375-10.181l9.75-0.863c0.553,2.166,1.457,3.797,2.714,4.891c1.255,1.094,2.898,1.642,4.926,1.642
			c0.922,0,1.798-0.08,2.627-0.243c0.83-0.161,1.555-0.42,2.179-0.778c0.622-0.358,1.117-0.817,1.487-1.383
			c0.368-0.564,0.553-1.239,0.553-2.021C234.06,126.605,233.818,125.948,233.333,125.395z M157.801,99.64l3.803,17.977
			c0.392,1.913,0.732,3.625,1.021,5.134c0.287,1.509,0.5,2.702,0.638,3.579h0.069c0.023-0.392,0.105-0.929,0.243-1.608
			c0.138-0.679,0.294-1.383,0.466-2.108c0.174-0.727,0.34-1.423,0.502-2.092c0.161-0.668,0.299-1.186,0.415-1.555l5.219-19.325
			h10.06l5.047,19.325c0.092,0.369,0.225,0.888,0.399,1.555c0.172,0.669,0.345,1.365,0.518,2.092
			c0.172,0.725,0.322,1.429,0.45,2.108c0.126,0.679,0.212,1.216,0.259,1.608h0.069c0.138-0.876,0.351-2.069,0.64-3.579
			c0.287-1.51,0.627-3.221,1.019-5.134l3.803-17.977h9.851l-10.509,39.341h-9.126l-6.396-22.609
			c-0.345-1.222-0.604-2.161-0.778-2.817c-0.172-0.658-0.294-1.181-0.363-1.573h-0.138c-0.069,0.346-0.213,0.939-0.433,1.78
			c-0.218,0.842-0.477,1.803-0.778,2.886l-6.256,22.333h-9.334L147.81,99.64H157.801z M108.093,99.64h31.388v8.055h-21.434v6.639
			h19.947v8.055h-19.947v8.539h22.195v8.055h-32.15V99.64z M59.181,99.64h9.402l15.246,24.026h0.103V99.64h9.403v39.341h-9.61
			l-15.038-23.646h-0.105v23.646h-9.402V99.64z M38.154,169.206c0-3.011,2.45-5.461,5.461-5.461h79.808
			c3.011,0,5.461,2.45,5.461,5.461v60.486c0,3.011-2.45,5.461-5.461,5.461H43.615c-3.011,0-5.461-2.45-5.461-5.461V169.206z
			 M264.418,252.865H40.675c-1.391,0-2.52-1.129-2.52-2.52s1.129-2.52,2.52-2.52h223.744c1.391,0,2.52,1.129,2.52,2.52
			S265.81,252.865,264.418,252.865z M264.418,227.732H142.325c-1.391,0-2.52-1.129-2.52-2.52s1.129-2.52,2.52-2.52h122.093
			c1.391,0,2.52,1.129,2.52,2.52S265.81,227.732,264.418,227.732z M264.418,203.65H142.325c-1.391,0-2.52-1.129-2.52-2.52
			s1.129-2.52,2.52-2.52h122.093c1.391,0,2.52,1.129,2.52,2.52S265.81,203.65,264.418,203.65z M264.418,179.568H142.325
			c-1.391,0-2.52-1.129-2.52-2.52s1.129-2.52,2.52-2.52h122.093c1.391,0,2.52,1.129,2.52,2.52S265.81,179.568,264.418,179.568z"/>
	</g>
	<path id="XMLID_77_" class="st0" d="M339.614,262.123V135.91l-44.769-0.115v126.154c-0.044,6.022,2.264,11.681,6.499,15.945
		c4.233,4.264,9.874,6.614,15.885,6.614C329.573,284.508,339.614,274.466,339.614,262.123z"/>
</g>
</svg>
