<?xml version="1.0" encoding="utf-8"?>
<!-- Generator: Adobe Illustrator 19.0.0, SVG Export Plug-In . SVG Version: 6.00 Build 0)  -->
<svg version="1.1" id="Layer_1" xmlns="http://www.w3.org/2000/svg" xmlns:xlink="http://www.w3.org/1999/xlink" x="0px" y="0px"
	 viewBox="0 0 350 350" style="enable-background:new 0 0 350 350;" xml:space="preserve">
<style type="text/css">
	.st0{fill:#201B4F;}
</style>
<g id="XMLID_6_">
	<circle id="XMLID_7_" class="st0" cx="175.029" cy="97.596" r="80.794"/>
	<path id="XMLID_18_" class="st0" d="M279.33,205.597c-42.938-20.353-49.005-21.745-49.005-21.745l-2.263,0.749l-37.998,75.913
		l-9.569-50.409c-0.043-0.227-0.242-0.392-0.473-0.392h-9.986c-0.232,0-0.43,0.165-0.473,0.392l-9.714,50.312l-40.843-76.339
		c-2.538,0.849-12.868,4.737-48.27,21.518c0,0-59.883,27.505-62.036,114.776c-0.111,4.507,2.653,8.4,6.444,9.012
		c21.807,3.521,292.279,2.97,319.496-0.294c3.908-0.469,6.84-4.425,6.718-9.053C339.06,233.032,279.33,205.597,279.33,205.597z"/>
	<path id="XMLID_19_" class="st0" d="M166.551,189.985c-1.278,0-2.215,1.201-1.906,2.441l3.415,13.661
		c0.219,0.875,1.004,1.488,1.906,1.488h10.125c0.901,0,1.687-0.613,1.906-1.488l3.415-13.661c0.31-1.24-0.628-2.441-1.905-2.441
		H166.551z"/>
</g>
</svg>
