<?xml version="1.0" encoding="utf-8"?>
<!-- Generator: Adobe Illustrator 19.0.0, SVG Export Plug-In . SVG Version: 6.00 Build 0)  -->
<svg version="1.1" id="Layer_1" xmlns="http://www.w3.org/2000/svg" xmlns:xlink="http://www.w3.org/1999/xlink" x="0px" y="0px"
	 viewBox="0 0 350 350" style="enable-background:new 0 0 350 350;" xml:space="preserve">
<style type="text/css">
	.st0{fill:#201B4F;}
</style>
<g id="XMLID_8_">
	<path id="XMLID_20_" class="st0" d="M178.549,8.014c-1.201-0.033-2.406-0.049-3.615-0.049c-1.212,0-2.42,0.017-3.623,0.05
		C82.628,10.445,28.218,106.021,68.775,184.923c32.828,63.865,87.365,134.926,102.213,153.846c1.951,2.486,5.704,2.48,7.648-0.012
		c14.815-19.001,69.33-90.448,102.215-154.149C321.476,105.913,267.078,10.435,178.549,8.014z M174.834,217.535
		c-49.619,0-89.986-40.367-89.986-89.985s40.368-89.986,89.986-89.986s89.985,40.368,89.985,89.986S224.452,217.535,174.834,217.535
		z"/>
	<path id="XMLID_34_" class="st0" d="M174.834,42.696c-46.789,0-84.853,38.064-84.853,84.853c0,46.788,38.064,84.852,84.853,84.852
		c46.788,0,84.852-38.064,84.852-84.852C259.686,80.761,221.621,42.696,174.834,42.696z M174.833,75.993
		c14.369,0,26.017,11.648,26.017,26.017c0,14.369-11.648,26.017-26.017,26.017c-14.369,0-26.017-11.648-26.017-26.017
		C148.816,87.641,160.464,75.993,174.833,75.993z M178.177,132.546l-1.1,4.399c-0.07,0.282-0.323,0.479-0.614,0.479h-3.26
		c-0.29,0-0.543-0.198-0.614-0.479l-1.1-4.399c-0.1-0.399,0.202-0.786,0.614-0.786h5.46
		C177.975,131.76,178.277,132.147,178.177,132.546z M226.231,176.554c-8.764,1.051-95.861,1.228-102.883,0.095
		c-1.22-0.197-2.111-1.451-2.075-2.902c0.694-28.102,19.977-36.959,19.977-36.959c11.4-5.404,14.726-6.656,15.544-6.929
		l13.152,24.582l3.128-16.201c0.014-0.073,0.078-0.126,0.152-0.126h3.216c0.075,0,0.138,0.053,0.152,0.126l3.081,16.232
		l12.236-24.445l0.729-0.241c0,0,1.954,0.448,15.78,7.002c0,0,19.234,8.834,19.974,36.852
		C228.433,175.129,227.489,176.403,226.231,176.554z"/>
</g>
</svg>
