<?xml version="1.0" encoding="utf-8"?>
<!-- Generator: Adobe Illustrator 19.0.0, SVG Export Plug-In . SVG Version: 6.00 Build 0)  -->
<svg version="1.1" id="Layer_1" xmlns="http://www.w3.org/2000/svg" xmlns:xlink="http://www.w3.org/1999/xlink" x="0px" y="0px"
	 viewBox="0 0 350 350" style="enable-background:new 0 0 350 350;" xml:space="preserve">
<style type="text/css">
	.st0{fill:#1D72E9;}
</style>
<g id="XMLID_23_">
	<polygon id="XMLID_29_" class="st0" points="135.921,105.751 135.959,105.751 141.407,114.329 144.888,114.329 144.888,100.057 
		141.482,100.057 141.482,108.773 141.444,108.773 135.921,100.057 132.515,100.057 132.515,114.329 135.921,114.329 	"/>
	<path id="XMLID_40_" class="st0" d="M206.867,153.814H125.81c-0.504,0-0.913,0.409-0.913,0.914s0.409,0.914,0.913,0.914h81.057
		c0.504,0,0.913-0.409,0.913-0.914S207.372,153.814,206.867,153.814z"/>
	<path id="XMLID_52_" class="st0" d="M171.762,114.329l2.266-8.102c0.109-0.393,0.203-0.742,0.282-1.047
		c0.08-0.305,0.132-0.52,0.157-0.646h0.05c0.025,0.142,0.069,0.332,0.131,0.571c0.063,0.238,0.157,0.579,0.282,1.022l2.317,8.202
		h3.306l3.807-14.272h-3.569l-1.378,6.521c-0.142,0.694-0.265,1.315-0.369,1.862c-0.105,0.548-0.182,0.98-0.232,1.298h-0.025
		c-0.017-0.142-0.048-0.337-0.094-0.583c-0.046-0.246-0.1-0.502-0.163-0.765c-0.063-0.264-0.125-0.516-0.188-0.759
		c-0.063-0.242-0.111-0.43-0.144-0.564l-1.828-7.011h-3.644l-1.891,7.011c-0.042,0.134-0.092,0.322-0.15,0.564
		c-0.059,0.243-0.119,0.495-0.182,0.759c-0.062,0.263-0.119,0.518-0.169,0.765c-0.05,0.246-0.08,0.441-0.088,0.583h-0.025
		c-0.05-0.318-0.127-0.751-0.231-1.298c-0.105-0.548-0.228-1.168-0.37-1.862l-1.378-6.521h-3.619l3.757,14.272H171.762z"/>
	<path id="XMLID_53_" class="st0" d="M195.131,111.35c-0.226,0.13-0.489,0.224-0.789,0.282c-0.3,0.059-0.618,0.088-0.952,0.088
		c-0.735,0-1.33-0.199-1.784-0.596c-0.455-0.397-0.783-0.989-0.983-1.774l-3.532,0.313c0.276,1.655,0.925,2.887,1.947,3.693
		c1.023,0.807,2.465,1.21,4.327,1.21c1.294,0,2.38-0.176,3.256-0.527c0.451-0.183,0.854-0.418,1.208-0.702
		c0.355-0.284,0.653-0.604,0.895-0.959c0.242-0.355,0.428-0.732,0.558-1.129c0.13-0.397,0.194-0.801,0.194-1.211
		c0-0.911-0.215-1.685-0.645-2.32c-0.43-0.636-1.005-1.137-1.722-1.505c-0.351-0.176-0.794-0.349-1.328-0.52
		c-0.534-0.171-1.16-0.34-1.878-0.508c-0.551-0.126-1.008-0.241-1.371-0.345c-0.363-0.104-0.654-0.211-0.871-0.32
		s-0.369-0.224-0.457-0.345c-0.087-0.121-0.131-0.261-0.131-0.42c0-0.351,0.182-0.627,0.545-0.828
		c0.363-0.201,0.879-0.301,1.547-0.301c0.659,0,1.164,0.134,1.515,0.402c0.351,0.267,0.597,0.673,0.739,1.216l3.619-0.15
		c-0.142-1.463-0.71-2.542-1.703-3.236c-0.994-0.694-2.375-1.041-4.146-1.041c-0.902,0-1.701,0.107-2.399,0.32
		c-0.697,0.213-1.284,0.506-1.759,0.878c-0.476,0.372-0.835,0.809-1.077,1.311c-0.242,0.502-0.363,1.037-0.363,1.605
		c0,1.17,0.484,2.165,1.453,2.984c0.317,0.268,0.776,0.525,1.378,0.771c0.601,0.246,1.282,0.462,2.041,0.646
		c0.601,0.142,1.09,0.259,1.465,0.351c0.376,0.092,0.647,0.167,0.814,0.226c0.401,0.126,0.689,0.289,0.864,0.489
		c0.175,0.201,0.263,0.439,0.263,0.715c0,0.284-0.067,0.529-0.2,0.733C195.535,111.054,195.356,111.221,195.131,111.35z"/>
	<path id="XMLID_56_" class="st0" d="M206.867,144.696h-44.232c-0.504,0-0.913,0.41-0.913,0.914c0,0.505,0.409,0.914,0.913,0.914
		h44.232c0.504,0,0.913-0.409,0.913-0.914C207.781,145.106,207.372,144.696,206.867,144.696z"/>
	<polygon id="XMLID_57_" class="st0" points="161.882,111.407 153.841,111.407 153.841,108.309 161.067,108.309 161.067,105.387 
		153.841,105.387 153.841,102.979 161.606,102.979 161.606,100.057 150.234,100.057 150.234,114.329 161.882,114.329 	"/>
	<path id="XMLID_101_" class="st0" d="M126.875,149.217h28.913c1.091,0,1.978-0.889,1.978-1.981v-21.943
		c0-1.092-0.887-1.981-1.978-1.981h-28.913c-1.091,0-1.978,0.889-1.978,1.981v21.943
		C124.897,148.328,125.785,149.217,126.875,149.217z M126.723,125.294c0-0.084,0.068-0.152,0.152-0.152h28.913
		c0.084,0,0.152,0.068,0.152,0.152v21.943c0,0.084-0.068,0.152-0.152,0.152h-28.913c-0.084,0-0.152-0.068-0.152-0.152V125.294z"/>
	<path id="XMLID_115_" class="st0" d="M178.163,8.014c-1.201-0.033-2.406-0.049-3.615-0.049c-1.212,0-2.42,0.017-3.623,0.05
		C82.242,10.445,27.831,106.021,68.389,184.923c32.828,63.865,87.365,134.926,102.213,153.846c1.951,2.486,5.704,2.48,7.648-0.012
		c14.815-19.001,69.33-90.448,102.215-154.149C321.09,105.913,266.692,10.435,178.163,8.014z M174.447,217.489
		c-49.619,0-89.986-40.367-89.986-89.985s40.367-89.986,89.986-89.986s89.986,40.368,89.986,89.986S224.065,217.489,174.447,217.489
		z"/>
	<path id="XMLID_116_" class="st0" d="M206.867,135.96h-44.232c-0.504,0-0.913,0.41-0.913,0.914c0,0.505,0.409,0.914,0.913,0.914
		h44.232c0.504,0,0.913-0.41,0.913-0.914C207.781,136.37,207.372,135.96,206.867,135.96z"/>
	<path id="XMLID_119_" class="st0" d="M174.447,42.65c-46.788,0-84.853,38.064-84.853,84.853c0,46.788,38.065,84.852,84.853,84.852
		s84.853-38.064,84.853-84.852C259.3,80.715,221.235,42.65,174.447,42.65z M120.828,167.731c-3.338,0-6.044-2.71-6.044-6.052V93.327
		c0-3.342,2.706-6.052,6.044-6.052h89.804c3.338,0,6.044,2.71,6.044,6.052v18.01c0,0.005-0.003,0.009-0.003,0.014v47.583
		c-0.018,2.507,0.943,4.868,2.708,6.647c0.956,0.964,2.087,1.684,3.318,2.15H120.828z M234.109,159.001
		c0,4.478-3.638,8.121-8.11,8.121c-2.177,0-4.221-0.852-5.755-2.399c-1.534-1.547-2.371-3.6-2.354-5.784v-45.765l16.219,0.042
		V159.001z"/>
	<path id="XMLID_121_" class="st0" d="M206.867,127.224h-44.232c-0.504,0-0.913,0.409-0.913,0.914c0,0.505,0.409,0.914,0.913,0.914
		h44.232c0.504,0,0.913-0.41,0.913-0.914C207.781,127.633,207.372,127.224,206.867,127.224z"/>
</g>
</svg>
