<?xml version="1.0" encoding="utf-8"?>
<!-- Generator: Adobe Illustrator 19.0.0, SVG Export Plug-In . SVG Version: 6.00 Build 0)  -->
<svg version="1.1" id="Layer_1" xmlns="http://www.w3.org/2000/svg" xmlns:xlink="http://www.w3.org/1999/xlink" x="0px" y="0px"
	 viewBox="0 0 350 350" style="enable-background:new 0 0 350 350;" xml:space="preserve">
<style type="text/css">
	.st0{fill:#666666;}
</style>
<g id="XMLID_14_">
	<path id="XMLID_86_" class="st0" d="M174.82,44.694c-46.352,0-84.061,37.71-84.061,84.061s37.71,84.061,84.061,84.061
		s84.061-37.71,84.061-84.061S221.171,44.694,174.82,44.694z M127.064,163.708c-7.374,0-13.373-6-13.373-13.374V97.457
		c0-7.374,5.999-13.374,13.373-13.374h74.702c7.374,0,13.374,6,13.374,13.374v52.877c0,0.012-0.002,0.023-0.002,0.035l-5.532-7.011
		v-45.9c0-4.323-3.517-7.84-7.84-7.84h-74.702c-4.323,0-7.84,3.517-7.84,7.84v52.877c0,4.323,3.517,7.841,7.84,7.841h68.47
		l4.366,5.534H127.064z M131.623,109.192c-0.849,0-1.537-0.688-1.537-1.537c0-0.849,0.688-1.537,1.537-1.537h65.584
		c0.849,0,1.537,0.688,1.537,1.537c0,0.849-0.688,1.537-1.537,1.537H131.623z M178.864,119.951c0,0.849-0.688,1.537-1.537,1.537
		h-45.704c-0.849,0-1.537-0.688-1.537-1.537c0-0.849,0.688-1.537,1.537-1.537h45.704
		C178.176,118.414,178.864,119.102,178.864,119.951z M181.58,133.666c-0.416-0.527-0.663-1.168-0.709-1.838l-0.638-9.372
		l8.967,2.801c0.641,0.2,1.207,0.59,1.623,1.117l33.768,42.798l-9.243,7.293L181.58,133.666z M229.722,178.005l-6.976,5.504
		c-0.626,0.494-1.534,0.387-2.028-0.239l-4.529-5.74l9.243-7.293l4.529,5.74C230.455,176.604,230.348,177.511,229.722,178.005z"/>
	<path id="XMLID_93_" class="st0" d="M178.515,10.302c-1.19-0.033-2.384-0.049-3.582-0.049c-1.201,0-2.398,0.016-3.591,0.049
		C83.463,12.711,29.545,107.421,69.735,185.609c32.531,63.287,86.574,133.704,101.287,152.452c1.933,2.463,5.653,2.458,7.578-0.012
		c14.681-18.829,68.702-89.629,101.29-152.753C320.148,107.315,266.242,12.701,178.515,10.302z M174.82,217.949
		c-49.182,0-89.194-40.012-89.194-89.194s40.012-89.194,89.194-89.194s89.194,40.012,89.194,89.194S224.002,217.949,174.82,217.949z
		"/>
</g>
</svg>
